<svg width="16" height="16" viewBox="0 0 16 16" fill="currentColor" xmlns="http://www.w3.org/2000/svg">
<path d="M0 13.3337V10.2857C0 9.65453 0.511675 9.14286 1.14286 9.14286C1.77404 9.14286 2.28571 9.65453 2.28571 10.2857V13.3337C2.28581 13.4346 2.32597 13.5313 2.39732 13.6027L2.45536 13.6507C2.51734 13.6919 2.59073 13.7142 2.66629 13.7143H13.3337C13.4346 13.7142 13.5313 13.674 13.6027 13.6027L13.6507 13.5446C13.6919 13.4827 13.7142 13.4093 13.7143 13.3337V10.2857C13.7143 9.65453 14.226 9.14286 14.8571 9.14286C15.4883 9.14286 16 9.65453 16 10.2857V13.3337C15.9999 13.9524 15.7849 14.549 15.3962 15.0234L15.2188 15.2188C14.7187 15.7188 14.0408 15.9999 13.3337 16H2.66629C2.04759 15.9999 1.45099 15.7849 0.976563 15.3962L0.78125 15.2188C0.281241 14.7187 9.84093e-05 14.0408 0 13.3337ZM6.85714 1.14286C6.85714 0.511675 7.36882 -8.06832e-10 8 0C8.63118 3.76214e-08 9.14286 0.511675 9.14286 1.14286V7.52679L11.0011 5.66853C11.4474 5.22221 12.1709 5.22221 12.6172 5.66853C13.0635 6.11484 13.0635 6.83829 12.6172 7.2846L8.80804 11.0938C8.59371 11.3081 8.3031 11.4286 8 11.4286C7.6969 11.4286 7.40629 11.3081 7.19196 11.0938L3.38281 7.2846L3.30357 7.19754C2.93758 6.74866 2.96444 6.0869 3.38281 5.66853C3.80119 5.25015 4.46295 5.22329 4.91183 5.58929L4.99888 5.66853L6.85714 7.52679V1.14286Z"/>
</svg>
