<svg width="16" height="16" viewBox="0 0 16 16" fill="currentColor" xmlns="http://www.w3.org/2000/svg">
<path d="M0 13.5783V3.88951C0.000131046 3.24732 0.255477 2.6315 0.709579 2.17739L0.886974 2.01622C1.31786 1.6632 1.85978 1.46789 2.42169 1.46782H7.26609L7.37253 1.47288C7.89578 1.52615 8.30403 1.96854 8.30411 2.50583C8.30411 3.04318 7.89582 3.48548 7.37253 3.53877L7.26609 3.54384H2.42169C2.3529 3.54391 2.28649 3.56498 2.23011 3.60264L2.17739 3.64521C2.11262 3.70998 2.07616 3.79792 2.07603 3.88951V13.5783L2.08312 13.6462C2.09645 13.7126 2.12886 13.774 2.17739 13.8226L2.23011 13.8662C2.28642 13.9037 2.35304 13.9239 2.42169 13.924H12.1105C12.2021 13.9239 12.29 13.8874 12.3548 13.8226C12.4196 13.7578 12.4561 13.67 12.4562 13.5783V8.73391C12.4562 8.1607 12.9209 7.69589 13.4942 7.69589C14.0674 7.69589 14.5321 8.1607 14.5322 8.73391V13.5783C14.5321 14.2206 14.2767 14.8363 13.8226 15.2904C13.3685 15.7446 12.7527 15.9999 12.1105 16H2.42169C1.85972 15.9999 1.31789 15.8047 0.886974 15.4516L0.709579 15.2904C0.312197 14.893 0.0672234 14.3719 0.0121642 13.8175L0 13.5783ZM13.924 2.50583C13.9239 2.42043 13.8987 2.33765 13.852 2.26761L13.7983 2.20172C13.7177 2.12114 13.6082 2.07603 13.4942 2.07603C13.4088 2.07603 13.326 2.10139 13.256 2.148L13.1901 2.20172L6.81804 8.57273L6.61632 9.38267L7.42727 9.17993L13.7983 2.80993L13.852 2.74404C13.8986 2.67401 13.924 2.5912 13.924 2.50583ZM16 2.50583C16 3.08747 15.7978 3.64831 15.4323 4.09427L15.2661 4.27775L8.69235 10.8525C8.55933 10.9855 8.39231 11.0796 8.20983 11.1252L5.44146 11.8175C5.08786 11.9058 4.71387 11.8016 4.45616 11.5438C4.19842 11.286 4.09509 10.9122 4.18348 10.5585L4.87481 7.79017L4.9184 7.65636C4.97043 7.52637 5.04881 7.40735 5.14851 7.30765L11.7223 0.733908L11.9057 0.567663C12.3517 0.202173 12.9125 0 13.4942 0C14.1588 0 14.7961 0.263993 15.2661 0.733908L15.4323 0.917385C15.7979 1.36334 16 1.92416 16 2.50583Z"/>
</svg>
