<svg width="16" height="16" viewBox="0 0 16 16" fill="currentColor" xmlns="http://www.w3.org/2000/svg">
<path fill-rule="evenodd" clip-rule="evenodd" d="M8 15C11.866 15 15 11.866 15 8C15 4.13401 11.866 1 8 1C4.13401 1 1 4.13401 1 8C1 11.866 4.13401 15 8 15ZM8 16C12.4183 16 16 12.4183 16 8C16 3.58172 12.4183 0 8 0C3.58172 0 0 3.58172 0 8C0 12.4183 3.58172 16 8 16Z"/>
<path d="M7 11.0038C7 10.8725 7.02586 10.7425 7.07611 10.6211C7.12635 10.4998 7.2 10.3896 7.29284 10.2968C7.38568 10.2039 7.4959 10.1303 7.61721 10.08C7.73851 10.0298 7.86852 10.0039 7.99982 10.0039C8.13112 10.0039 8.26114 10.0298 8.38244 10.08C8.50374 10.1303 8.61396 10.2039 8.70681 10.2968C8.79965 10.3896 8.87329 10.4998 8.92354 10.6211C8.97379 10.7425 8.99965 10.8725 8.99965 11.0038C8.99965 11.2689 8.89431 11.5232 8.70681 11.7107C8.5193 11.8982 8.26499 12.0036 7.99982 12.0036C7.73465 12.0036 7.48034 11.8982 7.29284 11.7107C7.10534 11.5232 7 11.2689 7 11.0038ZM7.09798 4.99982C7.08467 4.87369 7.09802 4.74616 7.13718 4.62552C7.17633 4.50487 7.24041 4.39381 7.32526 4.29953C7.41011 4.20526 7.51383 4.12987 7.6297 4.07827C7.74557 4.02667 7.87099 4 7.99782 4C8.12466 4 8.25008 4.02667 8.36595 4.07827C8.48181 4.12987 8.58554 4.20526 8.67039 4.29953C8.75524 4.39381 8.81932 4.50487 8.85847 4.62552C8.89763 4.74616 8.91098 4.87369 8.89766 4.99982L8.54773 8.5062C8.53597 8.64395 8.47294 8.77227 8.37111 8.86578C8.26929 8.95928 8.13607 9.01117 7.99782 9.01117C7.85958 9.01117 7.72636 8.95928 7.62453 8.86578C7.52271 8.77227 7.45968 8.64395 7.44792 8.5062L7.09798 4.99982Z"/>
</svg>
