<svg width="16" height="16" viewBox="0 0 16 16" fill="currentColor" xmlns="http://www.w3.org/2000/svg">
<path d="M8 16C3.58907 16 0 12.4109 0 8C0 3.58907 3.58907 0 8 0C12.4109 0 16 3.58907 16 8C16 12.4109 12.4109 16 8 16ZM8 1C4.14 1 1 4.14 1 8C1 11.86 4.14 15 8 15C11.86 15 15 11.86 15 8C15 4.14 11.86 1 8 1Z"/>
<path d="M7.50013 10.5C7.36763 10.5 7.24065 10.4475 7.14664 10.3535L5.14664 8.35352C4.95112 8.158 4.95112 7.84201 5.14664 7.64654C5.34216 7.45102 5.65815 7.45102 5.85361 7.64654L7.47561 9.26854L10.6236 5.67054C10.8061 5.46205 11.1216 5.44153 11.3291 5.62356C11.5372 5.80554 11.5581 6.12106 11.3766 6.32908L7.87663 10.3291C7.78564 10.4336 7.65565 10.4951 7.51715 10.4996C7.51111 10.5001 7.50564 10.5001 7.50012 10.5001L7.50013 10.5Z"/>
</svg>
