<svg width="16" height="16" viewBox="0 0 16 16" fill="currentColor" xmlns="http://www.w3.org/2000/svg">
<path d="M0 13.3337V10.2857C0 9.65453 0.511675 9.14286 1.14286 9.14286C1.77404 9.14286 2.28571 9.65453 2.28571 10.2857V13.3337C2.28581 13.4346 2.32597 13.5313 2.39732 13.6027L2.45536 13.6507C2.51734 13.6919 2.59073 13.7142 2.66629 13.7143H13.3337C13.4346 13.7142 13.5313 13.674 13.6027 13.6027L13.6507 13.5446C13.6919 13.4827 13.7142 13.4093 13.7143 13.3337V10.2857C13.7143 9.65453 14.226 9.14286 14.8571 9.14286C15.4883 9.14286 16 9.65453 16 10.2857V13.3337C15.9999 13.9524 15.7849 14.549 15.3962 15.0234L15.2188 15.2188C14.7187 15.7188 14.0408 15.9999 13.3337 16H2.66629C2.04759 15.9999 1.45099 15.7849 0.976563 15.3962L0.78125 15.2188C0.281241 14.7187 9.84093e-05 14.0408 0 13.3337ZM6.85714 10.2857V3.90179L4.99888 5.76004C4.55257 6.20636 3.82913 6.20636 3.38281 5.76004C2.9365 5.31373 2.9365 4.59029 3.38281 4.14397L7.19196 0.334821L7.27567 0.258929C7.47905 0.09226 7.73475 -9.48606e-09 8 0C8.3031 1.44338e-07 8.59371 0.120494 8.80804 0.334821L12.6172 4.14397L12.6964 4.23103C13.0624 4.67991 13.0356 5.34167 12.6172 5.76004C12.1988 6.17842 11.5371 6.20528 11.0882 5.83929L11.0011 5.76004L9.14286 3.90179V10.2857C9.14286 10.9169 8.63118 11.4286 8 11.4286C7.36882 11.4286 6.85714 10.9169 6.85714 10.2857Z"/>
</svg>
