<svg width="16" height="16" viewBox="0 0 16 16" fill="currentColor" xmlns="http://www.w3.org/2000/svg">
<path d="M7.9377 2.01668C7.95731 2.00594 7.97935 2.00043 8.0017 2.00068C8.02372 2.0006 8.0454 2.0061 8.0647 2.01668C8.08757 2.0304 8.10625 2.05011 8.1187 2.07368L14.9757 13.7407C15.0117 13.8007 15.0107 13.8647 14.9777 13.9237C14.965 13.9479 14.9464 13.9685 14.9237 13.9837C14.9039 13.9958 14.8809 14.0018 14.8577 14.0007H1.1457C1.12249 14.0018 1.09948 13.9959 1.0797 13.9837C1.05696 13.9685 1.03839 13.9479 1.0257 13.9237C1.00922 13.8959 1.00069 13.8642 1.00105 13.8319C1.0014 13.7996 1.01062 13.7681 1.0277 13.7407L7.8837 2.07368C7.8962 2.05014 7.91487 2.03044 7.9377 2.01668ZM8.9817 1.56668C8.88271 1.39425 8.73998 1.25098 8.56791 1.15136C8.39584 1.05173 8.20053 0.999268 8.0017 0.999268C7.80287 0.999268 7.60756 1.05173 7.4355 1.15136C7.26343 1.25098 7.12069 1.39425 7.0217 1.56668L0.164702 13.2337C-0.292298 14.0117 0.255702 15.0007 1.1447 15.0007H14.8577C15.7467 15.0007 16.2957 14.0107 15.8377 13.2337L8.9817 1.56668Z" />
<path d="M7.00391 12.0004C7.00391 11.869 7.02977 11.739 7.08003 11.6177C7.13028 11.4964 7.20394 11.3861 7.2968 11.2933C7.38966 11.2004 7.4999 11.1267 7.62122 11.0765C7.74255 11.0262 7.87258 11.0004 8.00391 11.0004C8.13523 11.0004 8.26526 11.0262 8.38659 11.0765C8.50792 11.1267 8.61815 11.2004 8.71101 11.2933C8.80387 11.3861 8.87753 11.4964 8.92779 11.6177C8.97804 11.739 9.00391 11.869 9.00391 12.0004C9.00391 12.2656 8.89855 12.5199 8.71101 12.7075C8.52348 12.895 8.26912 13.0004 8.00391 13.0004C7.73869 13.0004 7.48434 12.895 7.2968 12.7075C7.10926 12.5199 7.00391 12.2656 7.00391 12.0004V12.0004ZM7.10191 5.99536C7.08859 5.8692 7.10195 5.74165 7.14111 5.62099C7.18027 5.50033 7.24436 5.38924 7.32922 5.29495C7.41409 5.20065 7.51783 5.12526 7.63372 5.07364C7.7496 5.02203 7.87505 4.99536 8.00191 4.99536C8.12877 4.99536 8.25421 5.02203 8.37009 5.07364C8.48598 5.12526 8.58972 5.20065 8.67459 5.29495C8.75945 5.38924 8.82354 5.50033 8.86271 5.62099C8.90187 5.74165 8.91522 5.8692 8.90191 5.99536L8.55191 9.50236C8.54015 9.64013 8.47711 9.76847 8.37526 9.862C8.27342 9.95552 8.14018 10.0074 8.00191 10.0074C7.86363 10.0074 7.7304 9.95552 7.62855 9.862C7.5267 9.76847 7.46367 9.64013 7.45191 9.50236L7.10191 5.99536Z" />
</svg>
